<svg width="186" height="40" viewBox="0 0 186 40" fill="none" xmlns="http://www.w3.org/2000/svg">
<path d="M28.369 32.2507H10.2952C4.57565 32.2507 0 27.6923 0 21.9943V10.2564C0 4.5584 4.57565 0 10.2952 0H28.4834C34.2029 0 38.7786 4.5584 38.7786 10.2564V22.1083C38.6642 27.6923 34.0886 32.2507 28.369 32.2507Z" fill="#034EA2"/>
<path opacity="0.61" d="M32.1439 39.9999H20.9336V28.6039C20.9336 21.0826 27.1107 14.9287 34.6605 14.9287H45.8709V26.3247C45.8709 33.8461 39.6937 39.9999 32.1439 39.9999Z" fill="#034EA2"/>
<path d="M29.5128 25.755C30.7131 25.755 31.6862 24.7856 31.6862 23.5898C31.6862 22.394 30.7131 21.4246 29.5128 21.4246C28.3124 21.4246 27.3394 22.394 27.3394 23.5898C27.3394 24.7856 28.3124 25.755 29.5128 25.755Z" fill="white"/>
<path d="M55.7083 21.4246C54.7932 21.0827 53.9925 20.5129 53.4205 19.7152C52.8485 18.9175 52.5054 18.0058 52.5054 16.9801H56.7378C56.8522 17.5499 56.9666 18.0058 57.4242 18.3477C57.7674 18.6895 58.2249 18.8035 58.7969 18.8035C59.3688 18.8035 59.8264 18.6895 60.1696 18.3477C60.5128 18.1197 60.6271 17.6639 60.6271 17.2081C60.6271 16.7522 60.5128 16.5243 60.1696 16.1824C59.9408 15.9545 59.5976 15.7266 59.1401 15.4987C58.7969 15.3847 58.2249 15.1568 57.4242 14.9289C56.3947 14.587 55.4795 14.2451 54.7932 13.9032C54.1068 13.5613 53.5349 13.1055 53.0773 12.4217C52.8485 11.9659 52.6198 11.1682 52.6198 10.1425C52.6198 8.66104 53.1917 7.40748 54.3356 6.60976C55.4795 5.81204 56.8522 5.3562 58.6825 5.3562C60.5128 5.3562 61.9998 5.81204 63.0294 6.60976C64.0589 7.40748 64.7452 8.66104 64.8596 10.2565H60.5128C60.5128 9.68669 60.284 9.34481 59.9408 9.00293C59.5976 8.66104 59.1401 8.54708 58.5681 8.54708C58.1105 8.54708 57.653 8.66104 57.4242 8.88897C57.081 9.11689 56.9666 9.45877 56.9666 10.0286C56.9666 10.5984 57.1954 10.9402 57.7674 11.2821C58.2249 11.624 59.0257 11.8519 60.0552 12.1938C61.0847 12.5357 61.9998 12.8776 62.6862 13.2194C63.3725 13.5613 63.9445 14.0172 64.4021 14.587C64.8596 15.1568 65.0884 15.9545 65.0884 16.9801C65.0884 17.8918 64.8596 18.8035 64.4021 19.4873C63.9445 20.285 63.2581 20.8548 62.343 21.3106C61.4279 21.7665 60.3984 21.9944 59.1401 21.9944C57.7674 21.9944 56.7378 21.7665 55.7083 21.4246Z" fill="#034EA2"/>
<path d="M67.376 11.7378C67.8336 10.7122 68.5199 9.91445 69.435 9.45861C70.3502 8.88881 71.2653 8.66089 72.4092 8.66089C73.3243 8.66089 74.1251 8.88881 74.8114 9.23069C75.4978 9.57257 76.0697 10.1424 76.4129 10.7122V8.77485H80.4166V21.7663H76.4129V19.9429C76.0697 20.5127 75.4978 21.0825 74.8114 21.4244C74.1251 21.7663 73.3243 21.9942 72.4092 21.9942C71.3797 21.9942 70.3502 21.7663 69.5494 21.1965C68.7487 20.6267 67.948 19.829 67.4904 18.8033C67.0328 17.7777 66.6897 16.6381 66.6897 15.2706C66.5753 14.017 66.9184 12.7635 67.376 11.7378ZM75.6122 12.9914C75.0402 12.4216 74.3539 12.0797 73.5531 12.0797C72.7524 12.0797 72.066 12.3076 71.4941 12.8774C70.9221 13.4472 70.6933 14.2449 70.6933 15.2706C70.6933 16.2962 70.9221 17.0939 71.4941 17.6637C72.066 18.2335 72.7524 18.5754 73.5531 18.5754C74.3539 18.5754 75.0402 18.2335 75.6122 17.6637C76.1841 17.0939 76.4129 16.2962 76.4129 15.2706C76.4129 14.3589 76.0697 13.5612 75.6122 12.9914Z" fill="#034EA2"/>
<path d="M89.797 12.0797H87.6236V21.7663H83.6199V12.0797H82.1328V8.77488H83.6199V8.433C83.6199 6.83756 84.0775 5.584 84.9926 4.78628C85.9077 3.98856 87.2804 3.53271 88.9963 3.53271C89.3395 3.53271 89.4538 3.53271 89.6826 3.53271V6.95152C88.8819 6.95152 88.4243 7.06548 88.0812 7.2934C87.738 7.52132 87.6236 7.97716 87.6236 8.66092V8.77488H89.797V12.0797Z" fill="#034EA2"/>
<path d="M103.867 16.2963H94.8302C94.9446 17.094 95.1734 17.6638 95.631 18.1196C96.0885 18.5755 96.6605 18.8034 97.3468 18.8034C98.3763 18.8034 99.0627 18.3475 99.4059 17.5498H103.638C103.41 18.3475 103.066 19.1453 102.494 19.829C101.922 20.5128 101.236 21.0826 100.321 21.4245C99.5202 21.7664 98.4907 21.9943 97.4612 21.9943C96.2029 21.9943 95.059 21.7664 94.0295 21.1966C93 20.6268 92.1992 19.829 91.7417 18.9174C91.2841 18.0057 90.9409 16.7521 90.9409 15.3846C90.9409 14.0171 91.1697 12.8775 91.7417 11.8518C92.3136 10.8262 93.1143 10.0285 94.0295 9.57262C95.059 9.00282 96.2029 8.7749 97.4612 8.7749C98.7195 8.7749 99.8634 9.00282 100.779 9.57262C101.808 10.1424 102.494 10.8262 103.066 11.8518C103.638 12.8775 103.867 14.0171 103.867 15.2706C103.982 15.4985 103.982 15.8404 103.867 16.2963ZM99.8634 14.0171C99.8634 13.3333 99.6346 12.7635 99.1771 12.4216C98.7195 11.9658 98.1476 11.8518 97.4612 11.8518C96.7749 11.8518 96.2029 12.0797 95.7453 12.4216C95.2878 12.7635 94.9446 13.3333 94.9446 14.131H99.8634V14.0171Z" fill="#034EA2"/>
<path d="M125.258 5.46997V21.7663H121.255V15.0426H115.077V21.7663H111.074V5.46997H115.077V11.8517H121.255V5.46997H125.258Z" fill="#034EA2"/>
<path d="M128.118 11.7378C128.575 10.7122 129.262 9.91445 130.177 9.45861C131.092 8.88881 132.007 8.66089 133.151 8.66089C134.066 8.66089 134.867 8.88881 135.553 9.23069C136.24 9.57257 136.812 10.1424 137.155 10.7122V8.77485H141.158V21.7663H137.155V19.9429C136.812 20.5127 136.24 21.0825 135.553 21.4244C134.867 21.7663 134.066 21.9942 133.151 21.9942C132.121 21.9942 131.092 21.7663 130.291 21.1965C129.376 20.6267 128.69 19.829 128.232 18.8033C127.775 17.7777 127.431 16.6381 127.431 15.2706C127.317 14.017 127.546 12.7635 128.118 11.7378ZM136.24 12.9914C135.668 12.4216 134.981 12.0797 134.181 12.0797C133.38 12.0797 132.693 12.3076 132.121 12.8774C131.55 13.4472 131.321 14.2449 131.321 15.2706C131.321 16.2962 131.55 17.0939 132.121 17.6637C132.693 18.2335 133.38 18.5754 134.181 18.5754C134.981 18.5754 135.668 18.2335 136.24 17.6637C136.812 17.0939 137.04 16.2962 137.04 15.2706C137.04 14.3589 136.812 13.5612 136.24 12.9914Z" fill="#034EA2"/>
<path d="M149.852 18.1197L152.712 8.88892H156.945L152.369 21.8804H147.45L142.875 8.88892H147.107L149.852 18.1197Z" fill="#034EA2"/>
<path d="M170.786 16.2963H161.749C161.864 17.094 162.092 17.6638 162.55 18.1196C163.007 18.5755 163.579 18.8034 164.266 18.8034C165.295 18.8034 165.982 18.3475 166.325 17.5498H170.557C170.329 18.3475 169.985 19.1453 169.413 19.829C168.841 20.5128 168.155 21.0826 167.24 21.4245C166.439 21.7664 165.41 21.9943 164.38 21.9943C163.122 21.9943 161.978 21.7664 160.948 21.1966C159.919 20.6268 159.118 19.829 158.661 18.9174C158.089 17.8917 157.86 16.7521 157.86 15.3846C157.86 14.0171 158.089 12.8775 158.661 11.8518C159.233 10.8262 160.033 10.0285 160.948 9.57262C161.978 9.00282 163.122 8.7749 164.38 8.7749C165.638 8.7749 166.782 9.00282 167.698 9.57262C168.727 10.1424 169.413 10.8262 169.985 11.8518C170.557 12.8775 170.786 14.0171 170.786 15.2706C170.9 15.4985 170.9 15.8404 170.786 16.2963ZM166.782 14.0171C166.782 13.3333 166.554 12.7635 166.096 12.4216C165.638 11.9658 165.067 11.8518 164.38 11.8518C163.694 11.8518 163.122 12.0797 162.664 12.4216C162.207 12.7635 161.864 13.3333 161.864 14.131H166.782V14.0171Z" fill="#034EA2"/>
<path d="M184.627 10.1424C185.542 11.168 186 12.5355 186 14.2449V21.8803H181.996V14.8147C181.996 13.9031 181.767 13.2193 181.31 12.7635C180.852 12.3076 180.28 12.0797 179.479 12.0797C178.679 12.0797 178.107 12.3076 177.649 12.7635C177.191 13.2193 176.963 13.9031 176.963 14.8147V21.8803H172.959V8.77485H176.963V10.4843C177.42 9.91445 177.878 9.45861 178.564 9.11673C179.251 8.77485 180.051 8.66089 180.852 8.66089C182.453 8.66089 183.712 9.23069 184.627 10.1424Z" fill="#034EA2"/>
<g opacity="0.61">
<path opacity="0.61" d="M167.926 27.8062V38.5184H166.21V31.225L162.893 38.5184H161.635L158.317 31.225V38.5184H156.602V27.8062H158.546L162.321 36.2392L166.096 27.8062H167.926Z" fill="#034EA2"/>
<path opacity="0.61" d="M176.505 27.8062V29.2876H171.93V32.4785H175.476V33.96H171.93V38.6324H170.214V27.9201H176.505V27.8062Z" fill="#034EA2"/>
<path opacity="0.61" d="M185.314 33.96C185.771 34.4158 185.886 34.9856 185.886 35.6694C185.886 36.2392 185.771 36.695 185.428 37.1509C185.199 37.6067 184.742 37.9486 184.17 38.1765C183.598 38.4044 183.026 38.5184 182.34 38.5184H177.993V27.8062H182.111C182.797 27.8062 183.483 27.9201 183.941 28.148C184.513 28.376 184.856 28.7178 185.085 29.1737C185.314 29.6295 185.542 30.0854 185.542 30.5412C185.542 31.111 185.428 31.6808 185.085 32.1366C184.742 32.5925 184.284 32.8204 183.712 33.0483C184.513 33.1623 184.971 33.3902 185.314 33.96ZM179.937 32.3646H182.111C182.683 32.3646 183.14 32.2506 183.483 32.0227C183.827 31.7948 183.941 31.3389 183.941 30.8831C183.941 30.4272 183.827 29.9714 183.483 29.7435C183.14 29.5156 182.683 29.2876 182.111 29.2876H179.937V32.3646ZM183.712 36.695C184.055 36.3532 184.17 36.0113 184.17 35.4415C184.17 34.8717 183.941 34.5298 183.598 34.1879C183.255 33.846 182.797 33.7321 182.111 33.7321H179.823V37.0369H182.225C182.911 37.0369 183.369 36.923 183.712 36.695Z" fill="#034EA2"/>
</g>
<path opacity="0.61" d="M153.97 38.2906H53.1917C52.8485 38.2906 52.5054 37.9487 52.5054 37.6069C52.5054 37.265 52.8485 36.9231 53.1917 36.9231H153.97C154.313 36.9231 154.657 37.265 154.657 37.6069C154.657 37.9487 154.313 38.2906 153.97 38.2906Z" fill="#034EA2"/>
</svg>
